<svg xmlns="http://www.w3.org/2000/svg" xmlns:xlink="http://www.w3.org/1999/xlink" width="64" height="64" viewBox="0 0 64 64"><defs><style>.a,.c{fill:#fff;}.a{stroke:#707070;}.b{clip-path:url(#a);}</style><clipPath id="a"><rect class="a" width="64" height="64" transform="translate(148 2007)"/></clipPath></defs><g class="b" transform="translate(-148 -2007)"><g transform="translate(148 2007)"><path class="c" d="M28.917,64A28.784,28.784,0,0,0,54.322,21.712a5.07,5.07,0,0,1-.712.047c-.134,0-.275-.007-.416-.013l-3.66-.282L46.9,24.1a21.175,21.175,0,1,1-6.85-6.843l2.384-2.384-.322-4.2a5.527,5.527,0,0,1,.013-1A28.77,28.77,0,1,0,28.917,64Z"/><path class="c" d="M28.917,27.8q.282,0,.564.02L34.793,22.5l.114-.114a14.181,14.181,0,1,0,6.843,6.85l-.114.114-5.312,5.312q.02.282.02.564A7.431,7.431,0,1,1,28.917,27.8Z"/><path class="c" d="M58.566,9.576l1.706-1.706a1.986,1.986,0,0,0,0-2.814L59.09,3.868a1.978,1.978,0,0,0-2.807,0L54.329,5.822l-.4-5.2A.671.671,0,0,0,52.784.195L45.095,7.884a3.362,3.362,0,0,0-.974,2.633l.02.3.369,4.815-2.78,2.78-5,5-.114.114-4.842,4.842-2.149,2.149a1.657,1.657,0,0,0-.484,1.054L29,33.263a1.678,1.678,0,0,0,1.672,1.813h.087l1.78-.087a1.654,1.654,0,0,0,1.1-.49l2.129-2.129,4.842-4.842.114-.114,5-5,3.022-3.022,4.392.336.195.013c.087.007.175.007.255.007a3.377,3.377,0,0,0,2.377-.98l7.683-7.683a.67.67,0,0,0-.423-1.142Z"/></g></g></svg>